<svg width="15" height="15" viewBox="0 0 15 15" fill="none" xmlns="http://www.w3.org/2000/svg">
<path d="M3.125 6.25H4.375C5.625 6.25 6.25 5.625 6.25 4.375V3.125C6.25 1.875 5.625 1.25 4.375 1.25H3.125C1.875 1.25 1.25 1.875 1.25 3.125V4.375C1.25 5.625 1.875 6.25 3.125 6.25Z" stroke="#191A44" stroke-width="1.5" stroke-miterlimit="10" stroke-linecap="round" stroke-linejoin="round"/>
<path d="M10.625 6.25H11.875C13.125 6.25 13.75 5.625 13.75 4.375V3.125C13.75 1.875 13.125 1.25 11.875 1.25H10.625C9.375 1.25 8.75 1.875 8.75 3.125V4.375C8.75 5.625 9.375 6.25 10.625 6.25Z" stroke="#191A44" stroke-width="1.5" stroke-miterlimit="10" stroke-linecap="round" stroke-linejoin="round"/>
<path d="M10.625 13.75H11.875C13.125 13.75 13.75 13.125 13.75 11.875V10.625C13.75 9.375 13.125 8.75 11.875 8.75H10.625C9.375 8.75 8.75 9.375 8.75 10.625V11.875C8.75 13.125 9.375 13.75 10.625 13.75Z" stroke="#191A44" stroke-width="1.5" stroke-miterlimit="10" stroke-linecap="round" stroke-linejoin="round"/>
<path d="M3.125 13.75H4.375C5.625 13.75 6.25 13.125 6.25 11.875V10.625C6.25 9.375 5.625 8.75 4.375 8.75H3.125C1.875 8.75 1.25 9.375 1.25 10.625V11.875C1.25 13.125 1.875 13.75 3.125 13.75Z" stroke="#191A44" stroke-width="1.5" stroke-miterlimit="10" stroke-linecap="round" stroke-linejoin="round"/>
</svg>
