<svg width="22" height="24" viewBox="0 0 22 24" fill="none" xmlns="http://www.w3.org/2000/svg">
<path d="M18.1409 14.9299C16.2526 16.9799 13.5484 17.6099 11.1743 16.7999L6.85676 21.4999C6.54509 21.8499 5.93093 22.0599 5.49093 21.9899L3.49259 21.6899C2.83259 21.5899 2.21843 20.9099 2.11759 20.1899L1.84259 18.0099C1.77843 17.5299 1.98926 16.8599 2.29176 16.5199L6.60009 11.8199C5.86676 9.21995 6.43509 6.26995 8.32343 4.21995C11.0276 1.26995 15.4184 1.26995 18.1318 4.21995C20.8451 7.16995 20.8451 11.9799 18.1409 14.9299Z" stroke="#ABABAB" stroke-width="1.5" stroke-miterlimit="10" stroke-linecap="round" stroke-linejoin="round"/>
<path d="M6.31592 17.49L8.42425 19.79" stroke="#ABABAB" stroke-width="1.5" stroke-miterlimit="10" stroke-linecap="round" stroke-linejoin="round"/>
<path d="M13.292 11C14.0514 11 14.667 10.3284 14.667 9.5C14.667 8.67157 14.0514 8 13.292 8C12.5326 8 11.917 8.67157 11.917 9.5C11.917 10.3284 12.5326 11 13.292 11Z" stroke="#ABABAB" stroke-width="1.5" stroke-linecap="round" stroke-linejoin="round"/>
</svg>
