<svg width="12" height="12" viewBox="0 0 12 12" fill="none" xmlns="http://www.w3.org/2000/svg">
<path d="M8.5 9.21487H6.5L4.27499 10.6949C3.94499 10.9149 3.5 10.6799 3.5 10.2799V9.21487C2 9.21487 1 8.21487 1 6.71487V3.71484C1 2.21484 2 1.21484 3.5 1.21484H8.5C10 1.21484 11 2.21484 11 3.71484V6.71487C11 8.21487 10 9.21487 8.5 9.21487Z" stroke="#B4B800" stroke-width="0.8" stroke-miterlimit="10" stroke-linecap="round" stroke-linejoin="round"/>
<path d="M5.99991 5.68018V5.5752C5.99991 5.2352 6.20992 5.05519 6.41992 4.91019C6.62492 4.77019 6.8299 4.59019 6.8299 4.26019C6.8299 3.80019 6.45991 3.43018 5.99991 3.43018C5.53991 3.43018 5.16992 3.80019 5.16992 4.26019" stroke="#B4B800" stroke-width="0.8" stroke-linecap="round" stroke-linejoin="round"/>
<path d="M5.99775 6.875H6.00225" stroke="#B4B800" stroke-width="0.8" stroke-linecap="round" stroke-linejoin="round"/>
</svg>
