<svg width="27" height="24" viewBox="0 0 27 24" fill="none" xmlns="http://www.w3.org/2000/svg">
<path d="M13.6211 10.87C13.5145 10.86 13.3866 10.86 13.2693 10.87C10.7324 10.79 8.71777 8.84 8.71777 6.44C8.71777 3.99 10.8283 2 13.4505 2C16.0621 2 18.1833 3.99 18.1833 6.44C18.1726 8.84 16.158 10.79 13.6211 10.87Z" stroke="#ABABAB" stroke-width="1.5" stroke-linecap="round" stroke-linejoin="round"/>
<path d="M8.29112 14.56C5.71156 16.18 5.71156 18.82 8.29112 20.43C11.2224 22.27 16.0298 22.27 18.9611 20.43C21.5407 18.81 21.5407 16.17 18.9611 14.56C16.0405 12.73 11.2331 12.73 8.29112 14.56Z" stroke="#ABABAB" stroke-width="1.5" stroke-linecap="round" stroke-linejoin="round"/>
</svg>
