<svg width="13" height="13" viewBox="0 0 13 13" fill="none" xmlns="http://www.w3.org/2000/svg">
<path d="M11.7323 5.65502L11.2014 7.91919C10.7464 9.87461 9.84727 10.6654 8.15727 10.5029C7.88644 10.4813 7.59394 10.4325 7.27977 10.3567L6.36977 10.14C4.11102 9.60377 3.41227 8.48794 3.94311 6.22378L4.47394 3.95419C4.58227 3.49377 4.71227 3.09294 4.87477 2.76252C5.50852 1.45169 6.58644 1.09961 8.39561 1.52752L9.30019 1.73877C11.5698 2.26961 12.2631 3.39086 11.7323 5.65502Z" stroke="#B86300" stroke-width="0.8" stroke-linecap="round" stroke-linejoin="round"/>
<path d="M8.15793 10.5031C7.8221 10.7306 7.3996 10.9202 6.88501 11.0881L6.02918 11.3698C3.87876 12.0631 2.74668 11.4835 2.04793 9.33311L1.3546 7.19353C0.661262 5.04311 1.23543 3.90561 3.38585 3.21228L4.24168 2.93061C4.46376 2.8602 4.67501 2.80061 4.87543 2.7627C4.71293 3.09311 4.58293 3.49395 4.4746 3.95436L3.94376 6.22395C3.41293 8.48811 4.11168 9.60394 6.37043 10.1402L7.28043 10.3569C7.5946 10.4327 7.8871 10.4814 8.15793 10.5031Z" stroke="#B86300" stroke-width="0.8" stroke-linecap="round" stroke-linejoin="round"/>
<path d="M6.84668 4.62061L9.47376 5.28686" stroke="#B86300" stroke-width="0.8" stroke-linecap="round" stroke-linejoin="round"/>
<path d="M6.31543 6.7168L7.88626 7.11763" stroke="#B86300" stroke-width="0.8" stroke-linecap="round" stroke-linejoin="round"/>
</svg>
