<svg width="24" height="25" viewBox="0 0 24 25" fill="none" xmlns="http://www.w3.org/2000/svg">
<path d="M21.6602 10.8748L20.6802 15.229C19.8402 18.9894 18.1802 20.5102 15.0602 20.1977C14.5602 20.156 14.0202 20.0623 13.4402 19.9165L11.7602 19.4998C7.59018 18.4685 6.30018 16.3227 7.28018 11.9685L8.26018 7.60395C8.46018 6.71853 8.70018 5.9477 9.00018 5.31228C10.1702 2.79145 12.1602 2.11437 15.5002 2.93728L17.1702 3.34353C21.3602 4.36437 22.6402 6.52062 21.6602 10.8748Z" stroke="#ABABAB" stroke-width="1.5" stroke-linecap="round" stroke-linejoin="round"/>
<path d="M15.0603 20.1979C14.4403 20.6354 13.6603 21 12.7103 21.3229L11.1303 21.8646C7.16034 23.1979 5.07034 22.0833 3.78034 17.9479L2.50034 13.8333C1.22034 9.69792 2.28034 7.51042 6.25034 6.17708L7.83034 5.63542C8.24034 5.5 8.63034 5.38542 9.00034 5.3125C8.70034 5.94792 8.46034 6.71875 8.26034 7.60417L7.28034 11.9687C6.30034 16.3229 7.59034 18.4687 11.7603 19.5L13.4403 19.9167C14.0203 20.0625 14.5603 20.1562 15.0603 20.1979Z" stroke="#ABABAB" stroke-width="1.5" stroke-linecap="round" stroke-linejoin="round"/>
<path d="M12.6396 8.88525L17.4896 10.1665" stroke="#ABABAB" stroke-width="1.5" stroke-linecap="round" stroke-linejoin="round"/>
<path d="M11.6602 12.9165L14.5602 13.6873" stroke="#ABABAB" stroke-width="1.5" stroke-linecap="round" stroke-linejoin="round"/>
</svg>
