<svg width="25" height="24" viewBox="0 0 25 24" fill="none" xmlns="http://www.w3.org/2000/svg">
<path d="M9.93693 22H15.9205C20.9069 22 22.9014 20 22.9014 15V9C22.9014 4 20.9069 2 15.9205 2H9.93693C4.95059 2 2.95605 4 2.95605 9V15C2.95605 20 4.95059 22 9.93693 22Z" stroke="#B6B6B6" stroke-width="1.5" stroke-linecap="round" stroke-linejoin="round"/>
<path d="M15.2737 10.9101C15.174 11.6201 14.7551 12.2201 14.1767 12.5801V14.5601C14.1767 15.2501 13.6183 15.8101 12.9301 15.8101C12.242 15.8101 11.6836 15.2501 11.6836 14.5601V12.5801C11.1051 12.2201 10.6863 11.6201 10.5866 10.9101C10.5666 10.8001 10.5566 10.6801 10.5566 10.5601C10.5566 9.04012 11.9927 7.86012 13.5684 8.28012C14.3662 8.49012 15.0144 9.14012 15.2238 9.94012C15.3136 10.2701 15.3236 10.6001 15.2737 10.9101Z" stroke="#B6B6B6" stroke-width="1.5" stroke-miterlimit="10"/>
<path d="M22.9035 10.9102H15.2744" stroke="#B6B6B6" stroke-width="1.5" stroke-miterlimit="10"/>
<path d="M10.5851 10.9102H2.95605" stroke="#B6B6B6" stroke-width="1.5" stroke-miterlimit="10"/>
</svg>
